<svg xmlns="http://www.w3.org/2000/svg" xmlns:xlink="http://www.w3.org/1999/xlink" width="50" zoomAndPan="magnify" viewBox="0 0 37.5 37.499999" height="50" preserveAspectRatio="xMidYMid meet" version="1.0"><defs><clipPath id="dad7da31e9"><path d="M 2.546875 0 L 34.796875 0 L 34.796875 37.007812 L 2.546875 37.007812 Z M 2.546875 0 " clip-rule="nonzero"/></clipPath></defs><path fill="#f1af00" d="M 28.464844 22.695312 C 29.617188 21.933594 30.617188 21.003906 31.464844 19.902344 C 32.941406 17.992188 33.679688 15.519531 33.679688 12.484375 L 33.679688 12.375 C 33.679688 8.484375 32.441406 5.449219 29.972656 3.273438 C 27.726562 1.292969 24.664062 0.210938 20.789062 0.03125 L 28.121094 13.167969 L 22.054688 13.167969 Z M 28.464844 22.695312 " fill-opacity="1" fill-rule="nonzero"/><g clip-path="url(#dad7da31e9)"><path fill="#0074bd" d="M 34.796875 37.496094 L 11.222656 9.464844 L 17.019531 9.464844 L 9.824219 0.00390625 L 2.546875 0.00390625 L 2.546875 37.496094 L 10.757812 37.496094 L 10.757812 25.5 L 24.207031 37.496094 Z M 34.796875 37.496094 " fill-opacity="1" fill-rule="nonzero"/></g></svg>